<?xml version="1.0" standalone="no"?>
<!DOCTYPE svg PUBLIC "-//W3C//DTD SVG 20010904//EN"
 "http://www.w3.org/TR/2001/REC-SVG-20010904/DTD/svg10.dtd">
<svg version="1.0" xmlns="http://www.w3.org/2000/svg"
 width="1000.000000pt" height="1000.000000pt" viewBox="0 0 1000.000000 1000.000000"
 preserveAspectRatio="xMidYMid meet">
<metadata>
Created by potrace 1.14, written by Peter Selinger 2001-2017
</metadata>
<g transform="translate(0.000000,1000.000000) scale(0.100000,-0.100000)"
fill="#000000" stroke="none">
<path d="M4707 9933 c-3 -2 -40 -5 -83 -8 -44 -2 -79 -4 -79 -5 0 -1 -18 -3
-40 -5 -22 -1 -69 -6 -105 -10 -36 -5 -76 -9 -90 -11 -14 -1 -25 -3 -25 -4 0
-2 -15 -4 -88 -14 -27 -3 -67 -10 -90 -15 -23 -5 -58 -12 -78 -15 -20 -3 -42
-8 -50 -10 -8 -3 -25 -8 -39 -10 -77 -14 -308 -72 -345 -86 -19 -7 -319 -108
-340 -114 -5 -2 -32 -13 -58 -24 -27 -12 -53 -22 -58 -22 -5 0 -17 -4 -27 -9
-25 -14 -56 -24 -64 -23 -5 1 -8 -2 -8 -8 0 -6 -3 -9 -7 -8 -24 5 -431 -201
-573 -290 -14 -9 -26 -15 -27 -15 -2 2 -222 -140 -238 -154 -6 -4 -39 -28 -75
-53 -36 -24 -70 -49 -76 -55 -7 -5 -24 -19 -40 -30 -30 -22 -182 -143 -200
-160 -6 -5 -35 -30 -65 -55 -29 -25 -72 -63 -95 -85 -23 -22 -70 -67 -105
-100 -35 -33 -83 -82 -107 -107 -23 -26 -42 -45 -42 -41 0 3 -10 -7 -22 -23
-13 -16 -43 -50 -68 -77 -25 -27 -53 -61 -62 -76 -10 -14 -18 -22 -18 -16 0 5
-8 -2 -17 -15 -31 -44 -106 -135 -114 -138 -5 -2 -9 -10 -9 -18 0 -8 -3 -14
-7 -14 -5 0 -23 -23 -42 -50 -19 -28 -39 -50 -44 -50 -6 0 -7 -3 -4 -7 4 -3
-1 -16 -12 -27 -10 -12 -44 -59 -76 -106 -32 -47 -60 -87 -64 -90 -3 -3 -7
-11 -9 -19 -1 -7 -13 -27 -26 -45 -13 -17 -31 -44 -40 -61 -9 -16 -30 -52 -47
-80 -16 -27 -35 -61 -42 -75 -6 -14 -17 -31 -24 -38 -7 -8 -11 -17 -8 -22 3
-5 1 -10 -4 -12 -6 -2 -153 -287 -152 -295 0 -2 -9 -24 -20 -50 -49 -113 -149
-372 -149 -386 0 -9 -4 -19 -10 -22 -5 -3 -10 -16 -10 -29 0 -12 -5 -27 -12
-34 -7 -7 -9 -12 -5 -12 4 0 1 -17 -7 -37 -19 -51 -62 -205 -67 -238 -1 -5 -5
-20 -10 -33 -5 -12 -11 -33 -13 -45 -9 -43 -25 -122 -31 -147 -10 -46 -18 -95
-19 -112 0 -10 -3 -18 -6 -18 -3 0 -6 -8 -6 -17 0 -17 -5 -52 -20 -148 -3 -22
-8 -56 -10 -75 -2 -19 -6 -48 -8 -65 -4 -32 -16 -176 -22 -260 -5 -83 -5 -526
0 -590 3 -33 8 -98 11 -145 9 -116 10 -124 18 -137 4 -6 3 -14 -3 -18 -6 -4
-7 -12 -3 -18 8 -13 8 -11 17 -82 6 -51 13 -90 16 -90 1 0 3 -16 5 -35 5 -48
19 -131 34 -195 31 -142 52 -229 57 -237 3 -5 7 -19 9 -31 2 -12 13 -53 25
-90 12 -38 22 -77 23 -88 1 -10 6 -19 11 -19 5 0 6 -3 3 -6 -3 -4 -1 -16 5
-28 7 -11 12 -25 13 -31 1 -19 67 -206 95 -270 10 -22 28 -67 41 -100 13 -33
28 -63 34 -67 5 -4 6 -8 2 -8 -5 0 -1 -12 7 -27 8 -16 43 -86 78 -158 34 -71
65 -132 68 -135 3 -3 15 -25 28 -50 38 -75 110 -196 180 -305 47 -72 182 -266
192 -275 3 -3 25 -32 50 -65 24 -33 49 -65 55 -71 5 -7 26 -31 45 -55 19 -24
45 -54 57 -66 12 -13 20 -23 18 -23 -15 0 350 -369 450 -457 33 -28 82 -71
109 -95 27 -24 58 -50 70 -58 12 -8 26 -19 32 -25 6 -5 23 -19 38 -30 16 -11
33 -25 40 -31 19 -18 125 -94 133 -96 5 -1 13 -6 18 -10 6 -5 21 -18 35 -29
14 -12 44 -32 68 -46 23 -14 42 -29 42 -34 0 -5 8 -9 18 -9 11 0 27 -9 37 -20
10 -11 24 -20 32 -20 7 0 13 -4 13 -10 0 -5 6 -10 14 -10 8 0 16 -3 18 -7 4
-10 76 -52 101 -60 9 -3 17 -10 17 -15 0 -5 5 -6 10 -3 6 3 10 1 10 -4 0 -6 7
-11 15 -11 8 0 15 -4 15 -10 0 -5 9 -10 19 -10 11 0 21 -3 23 -8 4 -9 294
-155 304 -152 4 1 10 -2 13 -8 3 -5 20 -14 36 -20 17 -6 102 -40 190 -76 87
-36 168 -67 180 -69 11 -1 27 -7 35 -12 8 -5 24 -11 35 -12 11 -2 29 -7 40
-12 43 -20 330 -101 445 -126 92 -20 176 -36 202 -39 18 -3 33 -5 33 -6 0 -3
170 -29 230 -36 17 -1 55 -6 85 -9 30 -3 69 -8 86 -10 78 -11 268 -18 469 -18
237 0 365 6 550 27 28 4 68 8 90 11 39 4 194 28 265 40 19 3 45 8 57 10 11 1
29 6 40 9 10 3 32 8 48 10 17 3 77 17 135 32 58 14 110 27 115 28 6 2 30 9 55
16 52 16 45 14 90 24 19 5 40 12 45 16 6 4 47 17 93 30 45 13 82 28 82 32 0 5
6 8 13 7 6 -1 25 3 40 9 16 7 32 12 36 12 5 0 55 20 111 45 57 24 107 42 112
39 4 -3 8 -1 8 3 0 5 26 19 58 33 119 51 402 199 512 269 36 22 80 48 98 57
17 9 32 20 32 25 0 5 5 9 11 9 10 0 148 91 175 115 6 5 20 16 30 23 91 60 143
100 137 106 -3 3 -1 6 6 6 7 0 18 6 26 12 7 7 25 22 41 33 15 11 32 25 38 30
6 6 27 23 46 39 212 173 606 581 720 746 14 19 32 42 40 52 40 45 159 216 247
358 40 63 77 120 83 127 5 7 10 14 10 17 0 2 16 33 36 68 40 69 177 340 196
385 6 15 11 31 10 36 -1 4 2 7 8 7 6 0 9 3 8 8 -1 7 5 23 45 115 14 31 23 57
20 57 -3 0 -1 6 5 13 5 6 19 41 31 77 12 36 26 73 32 83 5 10 7 22 4 27 -3 4
-1 10 4 12 6 1 12 14 14 28 3 14 12 42 20 63 9 20 14 37 12 37 -2 0 5 26 16
57 11 32 22 69 25 83 7 32 7 34 26 100 15 50 38 153 43 190 1 8 5 22 8 30 3 8
8 31 11 50 6 36 12 68 21 118 8 38 15 90 20 137 2 22 4 40 5 40 1 0 3 11 5 25
1 14 5 49 9 79 11 97 19 205 20 268 1 35 3 63 6 63 7 0 3 416 -4 500 -3 36 -8
101 -11 145 -6 91 -11 140 -32 285 -3 25 -7 57 -7 73 -1 15 -3 27 -6 27 -5 0
-9 24 -11 73 0 9 -4 17 -8 17 -5 0 -7 11 -6 25 2 14 -1 27 -6 31 -5 3 -7 9 -4
14 3 5 1 27 -4 47 -6 21 -18 70 -26 108 -25 107 -89 328 -129 445 -20 58 -38
112 -41 120 -9 35 -97 246 -106 254 -5 6 -9 20 -9 32 0 12 -7 27 -15 34 -8 7
-15 18 -15 26 0 13 -153 319 -170 339 -6 7 -7 15 -3 18 3 4 -2 9 -11 13 -9 3
-13 10 -10 15 3 5 0 9 -5 9 -6 0 -11 5 -11 12 0 11 -11 29 -98 168 -50 79
-106 164 -112 170 -3 3 -25 34 -50 70 -24 36 -48 70 -52 75 -36 48 -184 232
-192 241 -6 6 -27 30 -46 53 -19 23 -61 69 -92 103 -32 33 -58 64 -58 68 0 4
-11 13 -25 20 -14 7 -23 15 -21 17 4 5 -59 69 -117 120 -21 17 -37 37 -37 44
0 7 -3 10 -6 7 -3 -3 -20 8 -37 26 -18 17 -59 54 -91 81 -32 28 -66 57 -75 65
-30 27 -195 156 -276 215 -44 32 -83 64 -87 69 -4 6 -8 8 -8 3 0 -4 -35 17
-79 48 -43 30 -83 55 -89 55 -6 0 -12 4 -14 8 -2 6 -94 62 -233 142 -83 48
-185 99 -185 92 0 -4 -4 -2 -8 3 -7 11 -65 40 -179 91 -96 43 -128 57 -133 59
-22 8 -49 18 -70 27 -14 6 -29 12 -35 14 -5 1 -41 14 -80 29 -86 33 -301 104
-335 110 -14 2 -36 9 -50 14 -24 9 -249 66 -300 75 -53 10 -136 26 -160 32
-14 3 -38 7 -55 9 -16 2 -52 7 -80 11 -27 4 -58 7 -67 8 -10 0 -18 3 -18 6 0
3 -28 7 -63 9 -94 5 -101 6 -114 14 -6 4 -14 3 -18 -3 -4 -6 -11 -7 -17 -4 -6
4 -24 8 -42 11 -42 5 -694 11 -699 6z"/>
</g>
</svg>
